<svg width="20" height="20" viewBox="0 0 20 20" fill="none" xmlns="http://www.w3.org/2000/svg">
<rect width="20" height="20" rx="4" fill="white"/>
<g clip-path="url(#clip0_53_4227)">
<path d="M11.0293 9.99784C11.0293 12.5249 8.9947 14.5734 6.48497 14.5734C3.97523 14.5734 1.94043 12.5244 1.94043 9.99784C1.94043 7.47128 3.97508 5.42212 6.48497 5.42212C8.99485 5.42212 11.0293 7.47082 11.0293 9.99784ZM16.0147 9.99784C16.0147 12.3765 14.9974 14.3055 13.7424 14.3055C12.4875 14.3055 11.4702 12.3765 11.4702 9.99784C11.4702 7.61919 12.4873 5.69015 13.7423 5.69015C14.9972 5.69015 16.0145 7.61857 16.0145 9.99784H16.0147ZM18.0538 9.99784C18.0538 12.1285 17.6961 13.8568 17.2547 13.8568C16.8132 13.8568 16.4556 12.129 16.4556 9.99784C16.4556 7.86669 16.8134 6.13883 17.2547 6.13883C17.6959 6.13883 18.0538 7.86654 18.0538 9.99784Z" fill="black"/>
</g>
<defs>
<clipPath id="clip0_53_4227">
<rect width="16.1191" height="9.15577" fill="white" transform="translate(1.94043 5.42212)"/>
</clipPath>
</defs>
</svg>
